<svg xmlns="http://www.w3.org/2000/svg" width="75.853" height="76.251" viewBox="0 0 75.853 76.251"><g transform="translate(-341.138 -3604.155)"><path d="M416.97,3620.146c.349-3.013-3.748-9.547-9.155-10.348a11.545,11.545,0,0,0-6.219,1.014,27.25,27.25,0,0,0-6.3,4.095,29.436,29.436,0,0,0-6.5-7c-2.676-2.039-6.382-3.75-9.6-3.75a15.288,15.288,0,0,0-8.47,2.732,27.51,27.51,0,0,0-7.885,7.823s-8.214-6.844-13.815-4.749a11.465,11.465,0,0,0-7.878,10.186c-.293,3.755,10.858,38.216,10.858,38.216l7.267-.2-1.749-26.342,5.02-.493,2.069,26.835,11.408.1-.2-26.835h5.788l-.3,26.737,11.994.1,1.986-26.934,5.249.395-1.973,26.441h7.283l7.094-22.98Z" fill="#023047"/><rect width="54.069" height="17.036" rx="8.518" transform="translate(351.967 3663.371)" fill="#023047"/></g></svg>